<svg xmlns="http://www.w3.org/2000/svg" width="500" height="500" viewBox="0 0 500 500"><path d="M436.029 166.855c-19.517-43.257-57.8-74.82-110.706-91.277a267.722 267.722 0 0 0-70.943-11.861v-9.024a5 5 0 1 0-10 0v9.015a267.417 267.417 0 0 0-71.444 11.87C120.029 92.035 81.747 123.6 62.23 166.855a7.506 7.506 0 0 0 11.042 9.3c1.307-.877 32.463-21.228 72.079.375.13.07.267.123.4.186.06.028.119.057.18.084q.27.119.547.215c.058.02.116.038.174.056a7.5 7.5 0 0 0 1.75.339c.116.009.232.018.349.022.062 0 .124.011.186.011.1 0 .2-.011.3-.015s.17-.007.255-.013a7.238 7.238 0 0 0 .774-.098 7.269 7.269 0 0 0 1.098-.286c.136-.046.271-.1.406-.152.056-.023.114-.04.169-.064s.076-.04.115-.058c.067-.031.136-.054.2-.087.424-.208 42.332-20.217 92.124-.655v156.718a22.931 22.931 0 0 0-15.5 2.256v-1.561a20.039 20.039 0 0 0-13.308-18.848l-29-10.3v-7.544a34.978 34.978 0 0 0 17.746-27.729c7.064-8.731 15.826-19.59 15.826-32.476 0-30.483-25.481-55.282-56.8-55.282s-56.8 24.8-56.8 55.282c0 11.089 5.306 24.288 10.565 32.449a4.979 4.979 0 0 0 .866 1.016l3.72 3.332a35.031 35.031 0 0 0 15.565 22.461v8.491l-29 10.3a20.038 20.038 0 0 0-13.307 18.848v109.6a5 5 0 0 0 10 0v-109.6a10.021 10.021 0 0 1 6.656-9.428l30.482-10.827.661.283a48.739 48.739 0 0 0 39.066-.257L212.225 324a10.019 10.019 0 0 1 6.655 9.424v68.493a5 5 0 0 0 10 0v-34.545h15.5v34.053a24.3 24.3 0 0 1-2.38 10.708c-3.512 7.109-9.668 10.714-18.3 10.714-8.918 0-15.01-3.639-18.106-10.818a22.113 22.113 0 0 1-1.719-8.812v-57.331a5 5 0 0 0-10 0v57.331a32.054 32.054 0 0 0 2.537 12.773 29.193 29.193 0 0 0 3.656 6.228v20.806a5 5 0 0 0 10 0v-12.881a32.717 32.717 0 0 0 13.632 2.7c12.394 0 22.077-5.784 27.264-16.286a34.338 34.338 0 0 0 3.411-15.136V175.817c49.572-19.231 91.2.643 91.623.85.058.029.118.049.176.076s.09.049.137.07.111.039.166.061c.162.066.323.126.487.18.09.03.18.06.271.086.188.055.377.1.567.139.07.014.14.031.211.044q.357.063.714.09c.026 0 .053.007.08.009a7.436 7.436 0 0 0 .831.011h.024a7.64 7.64 0 0 0 .757-.077c.08-.011.158-.029.237-.043.18-.033.36-.071.537-.117.094-.024.186-.052.279-.08a7.03 7.03 0 0 0 .489-.166c.09-.034.18-.067.269-.105.178-.075.351-.159.522-.247.05-.026.1-.045.152-.071 39.616-21.6 70.772-1.252 72.053-.393a7.5 7.5 0 0 0 11.067-9.277zm-241.593 99.416a24.966 24.966 0 0 1-24.936 24.937h-13.584a24.968 24.968 0 0 1-24.937-24.95l-.072-27.673c3.236 1.375 7.288 3 11.584 4.465 14.917 5.106 24.337 5.623 29.645 1.627a5 5 0 0 0 1.568-6.011l-1.286-2.919c.283.1.57.19.858.283 8.306 2.665 15.4 3.021 21.16 1.071zm-77.892-29.741c0-24.969 20.994-45.282 46.8-45.282s46.8 20.313 46.8 45.282c0 5.42-2.429 10.7-5.708 15.719v-16.564-.092c-.131-7.152-4.951-9.807-8.16-9.847a5.06 5.06 0 0 0-2.766.793c-7.89 5.072-23.136-1.86-28.34-4.956a5 5 0 0 0-7.143 6.308l4.195 9.515c-6.958-.222-20.874-4.6-34.144-11.059a5 5 0 0 0-7.19 4.508l.062 23.972c-2.502-5.839-4.406-12.538-4.406-18.297zm30.716 67.964v-4.373a34.855 34.855 0 0 0 8.656 1.087H169.5a34.941 34.941 0 0 0 7.074-.721v4.079a38.816 38.816 0 0 1-29.314-.072zM85.882 154.647c19.354-30.028 49.907-51.721 91.1-64.617 4.1-1.284 8.138-2.422 12.083-3.431a135.077 135.077 0 0 0-24.84 30 205.109 205.109 0 0 0-19.908 42.724 88.958 88.958 0 0 0-35.873-7.718 85.478 85.478 0 0 0-22.562 3.042zm74.963 2.981a187.517 187.517 0 0 1 16.3-33.4c18.309-29.2 40.92-44.491 67.239-45.482v81.269a138.532 138.532 0 0 0-83.539-2.387zm68.035 199.744v-9.792a14.047 14.047 0 0 1 15.5-4.5v14.291zm25.5-197.524V78.776c26.105 1.165 48.546 16.436 66.738 45.455a187.445 187.445 0 0 1 16.3 33.4 138.539 138.539 0 0 0-83.038 2.217zm99.564-.526a205.148 205.148 0 0 0-19.907-42.722 135.131 135.131 0 0 0-24.84-30 236.065 236.065 0 0 1 12.082 3.431c41.192 12.9 71.744 34.588 91.1 64.616-14.361-3.928-34.979-5.575-58.435 4.675zM129.458 345.886v97.138a5 5 0 0 1-10 0v-97.138a5 5 0 0 1 10 0zM146.7 251.5v4.676a2.5 2.5 0 0 1-5 0V251.5a2.5 2.5 0 0 1 5 0zm36.923 0v4.676a2.5 2.5 0 0 1-5 0V251.5a2.5 2.5 0 0 1 5 0zm-7.923 30.38a2.5 2.5 0 0 1-1.6 3.153l-2.259.739a27.516 27.516 0 0 1-17.3-.1l-1.9-.646a2.5 2.5 0 0 1 1.609-4.734l1.9.646a22.479 22.479 0 0 0 14.133.083l2.259-.738a2.5 2.5 0 0 1 3.158 1.597z" fill="green"/></svg>